<?xml version="1.0" standalone="no"?>
<!DOCTYPE svg PUBLIC "-//W3C//DTD SVG 20010904//EN"
 "http://www.w3.org/TR/2001/REC-SVG-20010904/DTD/svg10.dtd">
<svg version="1.0" xmlns="http://www.w3.org/2000/svg"
 width="250.000000pt" height="250.000000pt" viewBox="0 0 250.000000 250.000000"
 preserveAspectRatio="xMidYMid meet">
<metadata>
Created by potrace 1.11, written by Peter Selinger 2001-2013
</metadata>
<g transform="translate(0.000000,250.000000) scale(0.100000,-0.100000)"
fill="#000000" stroke="none">
<path d="M358 2423 c-51 -90 -134 -275 -172 -383 -15 -41 -38 -93 -50 -115
-13 -22 -29 -71 -37 -109 -12 -60 -11 -76 4 -133 35 -132 76 -210 154 -287 49
-49 81 -90 99 -131 42 -93 100 -173 185 -256 43 -42 95 -98 115 -125 51 -69
130 -149 189 -192 54 -39 84 -71 85 -87 0 -18 135 -168 211 -236 41 -36 112
-92 159 -124 47 -32 100 -69 117 -82 32 -25 32 -25 17 -56 -9 -18 -27 -46 -40
-64 -29 -38 -29 -43 -6 -43 20 0 48 34 81 97 25 50 32 54 136 82 44 12 94 28
110 36 17 7 91 37 165 66 74 29 186 76 248 105 85 40 112 49 108 36 -35 -114
-54 -291 -42 -377 6 -40 10 -45 33 -45 23 0 25 3 20 30 -8 39 1 39 14 0 9 -25
16 -30 45 -30 19 0 34 2 34 6 0 8 -80 168 -89 177 -4 4 -1 48 6 98 15 100 53
191 91 218 57 40 83 65 117 116 29 45 36 63 33 96 l-3 41 -58 -81 c-32 -44
-72 -91 -90 -104 -43 -33 -237 -134 -376 -197 -129 -58 -429 -160 -473 -160
-39 0 -76 20 -188 104 -102 76 -342 307 -325 313 6 2 46 -15 88 -37 80 -41
121 -50 130 -27 3 7 -15 62 -38 123 -48 120 -69 211 -91 384 -20 166 -19 187
13 213 15 12 70 63 122 114 53 50 119 113 148 140 82 77 385 496 400 554 3 10
8 19 12 19 4 0 24 -54 46 -120 47 -147 52 -156 87 -140 19 9 29 26 42 69 8 31
25 89 36 129 12 40 30 94 41 119 l20 47 24 -52 c34 -73 55 -148 55 -194 0 -53
16 -83 36 -67 8 6 14 25 14 41 0 42 16 26 24 -24 4 -24 14 -54 22 -67 24 -36
5 -43 -54 -21 -70 27 -165 27 -220 0 -22 -11 -45 -20 -51 -20 -31 0 -194 -200
-189 -233 6 -39 25 -27 100 61 105 122 143 147 227 147 84 0 161 -26 218 -73
l45 -37 -6 -88 c-5 -83 -24 -137 -47 -137 -5 0 -9 27 -9 59 0 77 -12 106 -63
159 -81 84 -173 106 -249 59 -50 -30 -132 -128 -148 -178 -12 -35 -11 -42 3
-56 13 -13 19 -14 31 -3 9 7 16 23 16 35 0 25 56 105 78 113 26 8 10 -27 -23
-52 -25 -19 -35 -35 -35 -54 1 -41 34 -106 82 -158 l43 -47 -37 7 c-33 6 -38
4 -38 -12 0 -40 109 -56 201 -28 95 29 229 117 229 150 0 7 10 21 21 32 12 10
36 44 53 74 l31 55 6 -65 c7 -80 16 -110 34 -110 14 0 20 39 30 180 5 67 4 73
-8 51 -13 -22 -15 -18 -36 70 -12 52 -37 123 -56 158 -24 45 -32 71 -29 91 4
19 1 29 -9 33 -25 10 -48 -28 -67 -110 -15 -70 -18 -75 -25 -48 -4 17 -20 74
-36 129 -16 54 -29 112 -29 128 0 32 -26 49 -41 27 -6 -8 -8 -31 -5 -51 2 -21
1 -38 -2 -38 -9 0 -72 165 -79 205 -18 98 -72 41 -127 -131 -13 -43 -31 -105
-38 -136 -7 -32 -15 -58 -18 -58 -10 0 -80 242 -80 275 0 29 -15 64 -23 55 -2
-3 -26 -52 -54 -110 -27 -58 -72 -131 -98 -163 -26 -32 -66 -84 -89 -116 -46
-65 -113 -150 -197 -250 -72 -85 -259 -278 -259 -268 0 5 21 59 46 120 55 135
128 278 162 319 28 33 19 55 -17 43 -45 -14 -139 -166 -214 -345 -65 -158 -72
-198 -58 -371 8 -113 44 -273 107 -481 11 -37 -25 -16 -109 62 -92 87 -165
190 -212 303 -30 71 -56 87 -63 37 -7 -44 19 -103 89 -209 38 -57 68 -106 66
-108 -10 -10 -162 147 -223 230 -37 50 -89 121 -115 157 -66 89 -142 238 -180
351 -25 75 -32 117 -36 207 -3 61 -9 112 -13 112 -26 0 -57 -89 -72 -208 -3
-20 -8 -15 -38 34 -32 53 -35 64 -35 138 1 45 8 109 18 144 22 80 72 198 103
238 12 17 32 57 43 89 11 32 39 89 61 126 22 37 49 88 60 113 l19 46 -39 0
c-38 0 -40 -1 -82 -77z m2012 -588 c13 -31 20 -58 17 -61 -3 -3 -21 -2 -42 2
-34 6 -36 8 -29 38 8 38 22 76 28 76 2 0 14 -25 26 -55z m-270 -349 c20 -18
45 -38 55 -43 16 -9 16 -12 1 -41 -23 -45 -74 -59 -132 -37 -53 20 -85 60 -73
91 11 31 26 37 37 17 9 -16 11 -16 36 0 14 10 26 24 26 32 0 22 8 19 50 -19z"/>
<path d="M1476 1155 c-10 -27 -7 -80 6 -93 17 -17 53 4 38 23 -6 8 -10 29 -8
47 2 24 -1 34 -13 36 -9 2 -19 -4 -23 -13z"/>
<path d="M1488 739 c-21 -11 -38 -26 -38 -33 0 -53 72 -169 114 -183 44 -14
61 -9 103 32 38 38 43 48 43 88 0 56 -25 89 -78 105 -56 17 -101 14 -144 -9z
m165 -51 c9 -5 17 -19 17 -32 0 -30 -40 -90 -63 -94 -22 -4 -83 60 -90 94 -8
46 72 65 136 32z"/>
</g>
</svg>
